<?xml version="1.0" encoding="UTF-8" ?>
<!DOCTYPE svg PUBLIC "-//W3C//DTD SVG 1.1//EN" "http://www.w3.org/Graphics/SVG/1.1/DTD/svg11.dtd">
<svg viewBox="0 0 103 129" version="1.1" xmlns="http://www.w3.org/2000/svg">
<g id="#28163ffa">
<path fill="#28163f" opacity="0.98" d=" M 49.34 7.32 C 54.71 5.51 57.97 10.76 61.75 13.26 C 74.11 23.89 86.66 34.32 98.81 45.18 C 101.09 46.39 102.15 50.29 99.77 51.84 C 97.09 51.89 91.72 52.01 89.04 52.06 C 89.29 62.50 89.74 75.13 81.96 83.06 C 78.19 80.36 75.22 76.41 71.73 73.28 C 70.06 71.93 72.23 70.13 72.65 68.69 C 78.79 57.55 72.46 42.79 61.32 37.66 C 47.22 30.66 28.62 42.36 28.99 58.00 C 27.81 64.88 31.76 71.03 35.85 76.15 C 42.32 81.55 51.89 84.10 59.92 80.85 C 61.41 80.30 63.54 79.20 64.29 81.72 C 67.86 86.31 73.93 89.51 75.99 94.91 C 69.07 105.39 60.53 115.01 50.99 123.05 C 34.85 109.17 20.31 91.63 14.49 70.66 C 14.13 65.02 12.02 59.36 13.68 53.72 C 15.43 48.46 4.88 54.74 3.67 51.31 C -0.26 45.75 7.39 44.18 9.76 40.76 C 23.07 29.75 35.71 17.91 49.34 7.32 Z" />
</g>
<g id="#9a7007f9">
<path fill="#9a7007" opacity="0.98" d=" M 48.32 47.34 C 53.61 45.42 58.63 48.04 61.77 52.21 C 67.84 59.58 60.52 72.56 50.97 71.02 C 43.93 71.06 38.59 63.82 39.97 56.99 C 40.61 52.36 43.89 48.67 48.32 47.34 Z" />
</g>
</svg>
