<?xml version="1.0" encoding="UTF-8" ?>
<!DOCTYPE svg PUBLIC "-//W3C//DTD SVG 1.1//EN" "http://www.w3.org/Graphics/SVG/1.1/DTD/svg11.dtd">
<svg viewBox="0 0 360 144" version="1.1" xmlns="http://www.w3.org/2000/svg">
<g id="#291740ff">
<path fill="#291740" opacity="1.00" d=" M 58.59 14.63 C 61.21 12.27 65.41 12.76 67.86 15.13 C 82.08 27.24 96.27 39.39 110.45 51.54 C 112.47 52.94 112.72 57.20 109.97 57.84 C 106.76 58.58 103.41 58.09 100.15 58.16 C 100.10 65.73 100.65 73.58 97.98 80.81 C 96.88 84.03 95.10 86.95 93.23 89.77 C 89.69 85.94 85.76 82.48 82.29 78.59 C 82.71 76.06 84.50 73.94 85.13 71.45 C 86.65 65.39 86.11 58.65 82.80 53.26 C 77.83 44.48 66.63 39.65 56.88 42.52 C 46.58 45.09 39.00 55.39 39.61 65.99 C 39.88 76.29 47.80 85.73 57.90 87.77 C 63.29 89.24 68.80 87.67 73.90 85.88 C 78.46 90.60 83.20 95.15 87.79 99.85 C 80.62 110.74 71.86 120.56 61.95 129.04 C 46.56 115.98 33.41 99.61 26.56 80.45 C 24.18 73.30 24.08 65.62 24.60 58.17 C 21.07 57.76 15.91 59.69 13.76 55.91 C 12.85 53.59 15.02 51.86 16.51 50.48 C 30.59 38.60 44.48 26.48 58.59 14.63 Z" />
<path fill="#291740" opacity="1.00" d=" M 143.23 86.19 C 143.79 84.00 146.26 83.44 147.98 82.47 C 150.55 83.29 153.68 84.82 153.45 88.03 C 153.80 91.76 149.35 94.60 146.07 92.98 C 143.41 92.05 142.18 88.72 143.23 86.19 Z" />
<path fill="#291740" opacity="1.00" d=" M 315.08 83.68 C 317.97 83.27 320.85 82.80 323.73 82.31 C 323.73 97.33 323.84 112.35 323.67 127.37 C 316.66 128.68 308.77 130.35 302.14 126.85 C 293.91 122.01 293.20 110.16 297.48 102.44 C 300.82 96.38 308.89 95.20 314.91 97.55 C 314.86 92.93 314.78 88.30 315.08 83.68 M 305.30 106.37 C 303.23 110.41 303.25 116.05 306.35 119.57 C 308.52 122.00 312.01 121.30 314.90 121.37 C 314.69 115.75 315.54 110.10 314.69 104.51 C 311.56 104.32 307.23 103.00 305.30 106.37 Z" />
<path fill="#291740" opacity="1.00" d=" M 207.59 87.22 C 210.64 87.25 213.69 87.25 216.75 87.25 C 216.76 98.24 216.74 109.24 216.76 120.24 C 222.77 120.25 228.78 120.25 234.78 120.24 C 234.78 122.91 234.78 125.58 234.77 128.25 C 225.70 128.25 216.63 128.24 207.56 128.25 C 207.55 114.57 207.50 100.89 207.59 87.22 Z" />
<path fill="#291740" opacity="1.00" d=" M 237.12 104.04 C 241.08 95.42 254.15 93.56 260.53 100.43 C 264.21 104.48 264.35 110.29 264.31 115.45 C 257.51 115.68 250.70 115.42 243.90 115.62 C 244.76 117.39 245.54 119.45 247.48 120.33 C 251.82 122.48 256.79 121.10 261.25 120.09 C 261.64 122.47 262.06 124.85 262.48 127.23 C 255.76 129.20 247.85 130.36 241.60 126.44 C 234.38 121.75 233.60 111.25 237.12 104.04 M 243.96 109.44 C 247.98 109.53 252.00 109.53 256.02 109.44 C 255.37 106.53 253.53 103.17 250.02 103.54 C 246.52 103.26 244.72 106.54 243.96 109.44 Z" />
<path fill="#291740" opacity="1.00" d=" M 268.27 97.65 C 274.29 96.36 281.06 95.17 286.84 97.91 C 290.62 99.71 291.95 104.09 292.01 107.99 C 292.19 114.47 292.27 120.96 291.87 127.44 C 285.13 128.62 277.95 129.77 271.28 127.74 C 264.11 125.60 263.19 114.20 269.70 110.75 C 274.02 108.44 279.15 108.53 283.88 109.24 C 283.42 107.34 283.12 104.82 280.93 104.15 C 277.17 102.78 273.14 104.04 269.39 104.74 C 268.99 102.38 268.61 100.02 268.27 97.65 M 274.66 115.78 C 274.49 117.61 273.46 120.27 275.61 121.33 C 278.15 122.22 280.93 121.78 283.58 121.83 C 283.59 119.56 283.59 117.29 283.58 115.03 C 280.57 114.49 277.55 114.84 274.66 115.78 Z" />
<path fill="#291740" opacity="1.00" d=" M 331.97 97.96 C 337.22 95.21 343.53 96.31 349.03 97.67 C 348.63 100.02 348.15 102.35 347.63 104.67 C 344.08 103.85 339.73 102.21 336.41 104.48 C 336.16 105.59 336.00 107.11 337.36 107.58 C 341.00 109.71 345.53 110.39 348.54 113.53 C 352.35 117.94 350.74 126.07 344.88 127.83 C 338.98 129.69 332.44 129.14 326.61 127.24 C 327.09 124.87 327.57 122.51 328.00 120.14 C 332.42 121.50 337.06 122.22 341.66 121.39 C 341.38 120.33 341.97 118.87 341.03 118.09 C 337.51 115.72 332.89 115.27 329.83 112.16 C 325.89 108.18 326.84 100.51 331.97 97.96 Z" />
</g>
<g id="#9e7307ff">
<path fill="#9e7307" opacity="1.00" d=" M 58.43 53.69 C 65.88 50.31 75.39 56.87 74.81 65.03 C 75.34 72.63 67.06 79.01 59.85 76.78 C 54.20 75.45 50.04 69.62 50.71 63.84 C 51.15 59.38 54.30 55.36 58.43 53.69 Z" />
<path fill="#9e7307" opacity="1.00" d=" M 104.59 87.67 C 113.81 86.57 124.15 85.32 132.41 90.55 C 139.73 95.30 141.34 105.05 139.79 113.06 C 138.75 119.37 134.11 124.83 128.07 126.93 C 120.54 129.56 112.30 128.96 104.56 127.66 C 104.63 114.33 104.57 101.00 104.59 87.67 M 113.72 94.68 C 113.70 103.35 113.73 112.01 113.70 120.67 C 117.52 120.74 121.62 121.06 125.07 119.09 C 128.74 117.21 130.61 112.96 130.67 108.98 C 130.96 104.79 130.25 100.00 126.79 97.20 C 123.10 94.32 118.15 94.52 113.72 94.68 Z" />
<path fill="#9e7307" opacity="1.00" d=" M 179.04 97.57 C 184.73 96.38 190.96 95.40 196.55 97.50 C 200.56 98.98 202.49 103.31 202.54 107.35 C 202.67 114.02 202.55 120.69 202.58 127.36 C 196.50 128.64 190.21 129.30 184.04 128.39 C 180.58 127.81 177.06 125.44 176.32 121.84 C 175.80 118.39 175.73 114.16 178.80 111.80 C 183.20 108.35 189.26 108.41 194.52 109.32 C 193.85 107.58 193.92 105.05 191.84 104.33 C 187.98 102.64 183.71 104.08 179.78 104.73 C 179.51 102.34 179.25 99.96 179.04 97.57 M 184.58 119.09 C 185.83 123.22 191.04 121.57 194.24 121.76 C 194.25 119.61 194.27 117.45 194.31 115.29 C 190.91 114.28 184.35 114.07 184.58 119.09 Z" />
<path fill="#9e7307" opacity="1.00" d=" M 143.75 97.20 C 146.70 97.19 149.64 97.18 152.59 97.18 C 152.57 107.53 152.61 117.89 152.56 128.25 C 149.63 128.25 146.69 128.24 143.76 128.24 C 143.74 117.89 143.76 107.55 143.75 97.20 Z" />
<path fill="#9e7307" opacity="1.00" d=" M 157.33 98.65 C 163.79 96.48 170.80 95.58 177.45 97.51 C 176.95 99.90 176.47 102.29 176.05 104.70 C 172.77 104.22 169.46 104.03 166.16 104.21 C 165.35 112.21 166.70 120.25 165.85 128.25 C 163.03 128.25 160.22 128.25 157.41 128.29 C 157.23 118.41 157.38 108.53 157.33 98.65 Z" />
</g>
</svg>
